<?xml version="1.0" encoding="UTF-8" standalone="no"?>
<svg
   xmlns:dc="http://purl.org/dc/elements/1.1/"
   xmlns:cc="http://creativecommons.org/ns#"
   xmlns:rdf="http://www.w3.org/1999/02/22-rdf-syntax-ns#"
   xmlns:svg="http://www.w3.org/2000/svg"
   xmlns="http://www.w3.org/2000/svg"
   viewBox="0 0 486.66666 126.17333"
   height="126.17333"
   width="486.66666"
   xml:space="preserve"
   id="svg2"
   version="1.1"><metadata
     id="metadata8"><rdf:RDF><cc:Work
         rdf:about=""><dc:format>image/svg+xml</dc:format><dc:type
           rdf:resource="http://purl.org/dc/dcmitype/StillImage" /></cc:Work></rdf:RDF></metadata><defs
     id="defs6" /><g
     transform="matrix(1.3333333,0,0,-1.3333333,0,126.17333)"
     id="g10"><g
       transform="scale(0.1)"
       id="g12"><path
         id="path14"
         style="fill:#211c1d;fill-opacity:1;fill-rule:nonzero;stroke:none"
         d="m 2281.16,319.953 c -36.43,-43.742 -97.92,-114.164 -153.32,-149.164 -69.66,-43.773 -164.69,-70.09 -266.04,-70.09 -283.4,0 -368.93,186.379 -368.93,367.774 0,190.144 83.94,390.242 334.15,390.242 41.13,0 140.85,-1.235 228.02,-73.754 80.73,-63.781 91.82,-137.609 99.73,-183.859 l 126.39,0.414 V 917.125 H 2153.6 l -25.76,-53.367 c -53.85,28.781 -153.63,82.527 -338.89,82.527 -351.52,0 -612.74,-216.418 -612.74,-490.312 0,-241.414 199.51,-381.5277 410.13,-431.5628 C 1657.55,6.89453 1735.17,-2.65234 1811.15,0.644531 2070.67,11.957 2184.38,82.6563 2281.16,163.469" /><path
         id="path16"
         style="fill:#211c1d;fill-opacity:1;fill-rule:nonzero;stroke:none"
         d="M 2313.03,917.121 V 601.516 l 93.83,1.789 c 4.74,43.785 10.64,144.101 43.91,180.379 42.73,45.058 93.38,45.058 147.25,45.058 h 132.97 V 220.809 c 0,-32.567 -1.59,-77.539 -63.34,-93.793 C 2645.47,122 2634.38,122 2556.83,122 V 33.2109 H 3218.7 V 122 c -68.08,0 -80.74,0 -101.33,3.754 -75.99,13.773 -75.99,66.226 -75.99,98.809 v 604.179 h 134.54 c 41.19,0 90.3,0 126.7,-22.527 52.29,-33.797 56.96,-147.906 63.31,-202.914 l 93.88,-1.785 v 315.605" /><path
         id="path18"
         style="fill:#211c1d;fill-opacity:1;fill-rule:nonzero;stroke:none"
         d="M 193.125,239.586 C 132.984,134.5 99.7148,127.016 0,122 V 33.2109 H 446.508 V 122 c -64.891,0 -77.551,0 -94.992,5.016 -26.93,6.218 -36.438,21.269 -36.438,41.293 0,13.73 4.754,26.226 12.676,38.726 l 269.93,519.399 227.273,-516.891 c 6.34,-15.008 11.09,-28.809 11.09,-43.715 C 836.047,123.246 785.352,122 753.668,122 H 704.633 V 33.2109 H 1355.41 V 122 c -113.99,0 -153.62,17.527 -213.76,122.57 L 807.531,916.305 H 566.82" /><path
         id="path20"
         style="fill:#ee293d;fill-opacity:1;fill-rule:nonzero;stroke:none"
         d="m 870.43,435.422 c 5.664,2.379 17.953,-2.024 21.945,-4.914 1.832,-5.223 -7.305,-4.547 -11.441,-7.848 0.937,-4.972 -0.555,-2.726 1.129,-3.269 8.625,1.027 40.382,-7.289 58.421,-17.895 0.739,-6.426 4.668,-4.621 7.219,-5.461 l -7.273,-1.699 3.668,-5.02 c 2.918,6.75 8.093,-4.046 10.91,-3.398 -24.817,-13.512 -45.735,-14.391 -73.457,-13.027 -4.492,-0.032 -14.465,-5.676 -22.18,-1.188 -13.379,-4.883 -18.922,-2.246 -32.742,-3.918 -104.145,-13.73 -199.891,-38.683 -305.25,-74.941 -40.399,-13.821 -81.91,-44.137 -123.289,-47.922 -9.582,0.234 -26.594,12.629 -25.895,30.848 1.176,32.386 15.258,57.484 73.668,99.187 29.762,18.879 64.192,34.59 98.836,47.965 80.297,21.609 158.774,38.039 241.504,26.301 25.551,7.074 42.188,1.996 65.832,-7.375 18.016,-0.094 10.121,-3.332 18.395,-6.426" /><path
         id="path22"
         style="fill:#211c1d;fill-opacity:1;fill-rule:nonzero;stroke:none"
         d="m 3579.94,779.063 c 37.7,0 70.06,29.351 70.06,69.441 0,39.809 -32.36,69.148 -70.06,69.148 -38.16,0 -70.46,-29.339 -70.46,-69.148 0,-40.09 32.3,-69.441 70.46,-69.441 m -56.47,69.441 c 0,32.828 24.73,57.586 56.47,57.586 31.31,0 56.11,-24.758 56.11,-57.586 0,-33.328 -24.8,-57.867 -56.11,-57.867 -31.74,0 -56.47,24.539 -56.47,57.867 z m 41.81,-5.5 h 13.96 l 21.1,-34.59 h 13.49 l -22.7,35.133 c 11.73,1.48 20.69,7.726 20.69,22.031 0,15.754 -9.31,22.735 -28.21,22.735 h -30.48 v -79.899 h 12.15 v 34.59 z m 0,10.281 v 24.746 h 16.51 c 8.43,0 17.42,-1.832 17.42,-11.718 0,-12.309 -9.14,-13.028 -19.43,-13.028 h -14.5" /></g></g></svg>