<?xml version="1.0" encoding="UTF-8"?>
<svg width="318px" height="89px" viewBox="0 0 318 89" version="1.1" xmlns="http://www.w3.org/2000/svg" xmlns:xlink="http://www.w3.org/1999/xlink">
    <!-- Generator: Sketch 46.2 (44496) - http://www.bohemiancoding.com/sketch -->
    <title>Artboard</title>
    <desc>Created with Sketch.</desc>
    <defs>
        <polygon id="path-1" points="245.709 0.796 0 0.796 0 89.94 245.709 89.94"></polygon>
    </defs>
    <g id="Page-1" stroke="none" stroke-width="1" fill="none" fill-rule="evenodd">
        <g id="Artboard">
            <g id="Collins_Aerospace_Two-Line_black_CMYK" transform="translate(0.000000, -1.000000)">
                <path d="M121.26,68.493 L123.609,53.018 L123.701,53.018 L125.958,68.493 L121.26,68.493 Z M129.807,46.755 L118.091,46.755 L111.266,81.296 L119.419,81.296 L120.386,74.571 L126.741,74.571 L127.893,81.296 L136.089,81.296 L129.807,46.755 L129.807,46.755 Z" id="Fill-1" fill="#000000"></path>
                <path d="M169.848,55.506 L169.959,58.813 L170.051,58.813 C170.277,57.836 171.605,54.769 175.718,54.769 L175.718,63.059 C175.476,63.012 174.58,62.875 173.507,62.875 C171.628,62.875 170.468,64.033 170.468,66.297 L170.468,81.296 L162.44,81.296 L162.44,55.506 L169.848,55.506" id="Fill-2" fill="#000000"></path>
                <path d="M262.087,73.885 C262.087,75.005 261.656,76.487 259.871,76.487 C258.554,76.487 257.796,75.466 257.796,73.952 C257.796,72.317 257.96,70.593 260.232,69.607 C260.906,69.314 262.087,68.77 262.087,68.77 L262.087,73.885 Z M270.183,75.99 L270.183,63.451 C270.183,58.777 267.343,54.768 259.554,54.768 C254.9,54.768 250.231,57.722 250.231,62.826 C250.231,62.947 250.231,64.083 250.231,64.083 L258.291,64.083 C258.291,64.083 258.291,62.375 258.291,62.299 C258.291,61.246 259.048,60.39 260.201,60.39 C261.419,60.39 262.087,61.081 262.087,61.992 C262.087,64.042 260.337,64.696 258.375,65.446 C257.48,65.788 256.638,66.102 255.644,66.491 C252.919,67.555 249.798,69.475 249.798,73.754 C249.798,74.05 249.798,75.371 249.798,75.433 C249.798,79.531 251.971,82.125 256.117,82.125 C259.804,82.125 261.8,79.864 262.361,78.992 L262.574,81.296 L270.783,81.296 C270.46,80.373 270.183,78.621 270.183,75.99 L270.183,75.99 Z" id="Fill-3" fill="#000000"></path>
                <path d="M306.724,62.113 C306.724,61.097 307.464,60.313 308.523,60.313 C309.447,60.313 310.324,61.005 310.324,62.066 L310.324,65.064 L306.724,65.064 L306.724,62.113 Z M318.07,70.228 L318.07,63.633 C318.07,58.331 315.072,54.779 308.523,54.779 C302.574,54.779 298.933,57.777 298.933,63.633 L298.933,73.318 C298.933,79.174 302.574,82.171 308.523,82.171 C314.98,82.171 317.931,78.621 318.025,73.412 L318.025,72.488 L310.324,72.488 L310.324,74.838 C310.324,75.9 309.447,76.637 308.523,76.637 C307.464,76.637 306.724,75.808 306.724,74.838 L306.724,70.228 L318.07,70.228 L318.07,70.228 Z" id="Fill-4" fill="#000000"></path>
                <path d="M146.519,62.113 C146.519,61.097 147.257,60.313 148.319,60.313 C149.24,60.313 150.118,61.005 150.118,62.066 L150.118,65.064 L146.519,65.064 L146.519,62.113 Z M157.864,70.228 L157.864,63.633 C157.864,58.331 154.866,54.779 148.319,54.779 C142.369,54.779 138.727,57.777 138.727,63.633 L138.727,73.318 C138.727,79.174 142.369,82.171 148.319,82.171 C154.774,82.171 157.725,78.621 157.818,73.412 L157.818,72.488 L150.118,72.488 L150.118,74.838 C150.118,75.9 149.24,76.637 148.319,76.637 C147.257,76.637 146.519,75.808 146.519,74.838 L146.519,70.228 L157.864,70.228 L157.864,70.228 Z" id="Fill-5" fill="#000000"></path>
                <path d="M294.82,71.426 L294.82,73.319 C294.82,78.621 291.316,82.171 284.767,82.171 C278.82,82.171 274.716,79.173 274.716,73.319 L274.716,63.633 C274.716,57.777 278.82,54.779 284.767,54.779 C291.316,54.779 294.82,58.331 294.82,63.633 L294.82,65.248 L286.474,65.248 L286.474,62.159 C286.474,61.098 285.691,60.453 284.767,60.453 C283.707,60.453 283.015,61.19 283.015,62.159 L283.015,74.792 C283.015,75.763 283.707,76.5 284.767,76.5 C285.691,76.5 286.474,75.854 286.474,74.792 L286.474,71.426 L294.82,71.426" id="Fill-6" fill="#000000"></path>
                <path d="M189.603,74.792 C189.603,75.854 188.707,76.546 187.71,76.546 C186.65,76.546 185.822,75.762 185.822,74.792 L185.822,62.112 C185.822,61.145 186.608,60.359 187.71,60.359 C188.794,60.359 189.603,61.097 189.603,62.159 L189.603,74.792 Z M187.69,54.779 C181.742,54.779 177.73,57.777 177.73,63.633 L177.73,73.364 C177.73,79.221 181.789,82.171 187.69,82.171 C194.286,82.171 197.7,78.621 197.7,73.318 L197.7,63.633 C197.7,58.331 194.239,54.779 187.69,54.779 L187.69,54.779 Z" id="Fill-7" fill="#000000"></path>
                <g id="Group-12">
                    <mask id="mask-2" fill="white">
                        <use xlink:href="#path-1"></use>
                    </mask>
                    <g id="Clip-9"></g>
                    <path d="M221.125,63.863 L213.561,63.863 L213.561,62.295 C213.561,61.054 212.736,60.083 211.395,60.083 C209.981,60.083 209.317,60.79 209.317,61.79 C209.317,63.005 210.034,63.732 211.885,64.632 C213.038,65.192 214.279,65.794 215.709,66.485 C220.638,68.87 221.863,70.816 221.863,73.963 C221.863,78.587 218.48,82.171 211.439,82.171 C204.738,82.171 201.386,78.775 201.386,73.455 L201.386,72.488 L209.043,72.488 L209.043,74.563 C209.043,75.996 209.88,76.868 211.439,76.868 C212.81,76.868 213.654,75.883 213.654,74.791 C213.654,74.157 213.561,73.09 210.65,71.67 C209.987,71.346 208.593,70.683 207.853,70.321 C204.302,68.585 201.849,67.04 201.849,62.526 C201.849,58.05 205.263,54.779 211.487,54.779 C218.591,54.779 221.125,58.725 221.125,63.173 L221.125,63.863" id="Fill-8" fill="#000000" mask="url(#mask-2)"></path>
                    <path d="M237.591,74.788 C237.591,75.85 236.695,76.541 235.699,76.541 C234.638,76.541 233.808,75.756 233.808,74.788 L233.808,62.108 C233.808,61.14 234.595,60.354 235.699,60.354 C236.783,60.354 237.591,61.094 237.591,62.155 L237.591,74.788 Z M239.017,54.768 C234.712,54.768 233.911,56.735 233.361,57.637 L233.269,57.637 L233.21,55.505 L225.736,55.505 L225.736,90 L233.808,90 L233.808,79.864 L233.9,79.864 C234.611,80.79 235.587,82.125 238.933,82.125 C244.14,82.125 245.709,78.546 245.709,74.841 L245.709,61.875 C245.709,58.087 243.853,54.768 239.017,54.768 L239.017,54.768 Z" id="Fill-10" fill="#000000" mask="url(#mask-2)"></path>
                    <path d="M58.122,82.541 L55.346,72.591 L55.688,72.46 L61.135,81.197 C63.811,79.994 66.449,78.29 68.586,76.498 L63.609,68.485 L63.894,68.248 L70.974,74.473 C73.339,72.458 75.51,69.909 77.12,67.48 L70.634,61.701 L70.834,61.391 L78.75,64.971 C80.499,62.257 81.952,59.081 82.814,55.949 L75.637,52.621 L75.726,52.264 L83.582,53.196 C84.428,50.064 84.805,46.646 84.769,43.199 L58.807,43.199 C58.776,52.169 51.495,59.434 42.517,59.434 C33.52,59.434 26.226,52.14 26.226,43.145 C26.226,34.905 32.343,28.095 40.283,27.006 L33.679,1.744 C32.275,1.977 30.517,2.433 29.218,2.938 L35.758,26.591 L35.397,26.727 L23.252,5.414 C21.796,6.057 20.164,7.036 18.935,7.939 L30.947,27.804 L30.654,28.037 L14.151,11.65 C12.932,12.652 11.506,14.06 10.555,15.288 L26.488,30.469 L26.248,30.757 L7.15,19.729 C6.113,21.095 5.073,22.97 4.393,24.512 L22.644,34.561 L22.504,34.911 L2.384,29.324 C1.727,31.016 1.135,33.198 0.854,34.997 L20.006,39.679 L19.939,40.061 L0.174,40.07 C0.11,41.023 0,42.221 0,43.191 C0,44.134 0.105,45.27 0.165,46.197 L18.765,46.04 L18.803,46.397 L0.759,50.896 C1.089,53.034 1.637,55.152 2.399,57.113 L19.167,52.514 L19.312,52.853 L4.103,61.274 C5.011,63.298 6.141,65.252 7.44,67.092 L21.238,59.108 L21.466,59.4 L10.039,70.504 C11.47,72.295 13.13,73.947 14.927,75.421 L25.202,65.255 L25.502,65.471 L18.158,77.92 C20.091,79.331 22.164,80.55 24.404,81.542 L31.041,70.164 L31.389,70.301 L27.949,83.015 C30.207,83.91 32.657,84.542 35.21,84.94 L38.415,73.182 L38.781,73.242 L38.859,85.401 C40.034,85.5 41.214,85.603 42.415,85.603 C43.853,85.603 45.274,85.478 46.675,85.339 L46.68,74.059 L47.046,74.008 L50.129,84.85 C53.018,84.395 55.764,83.56 58.107,82.547 L58.122,82.541 Z M44.714,0.902 C44.011,0.835 43.128,0.795 42.434,0.795 C41.806,0.795 40.933,0.828 40.328,0.892 L40.562,26.969 C41.202,26.894 41.855,26.854 42.517,26.854 C43.184,26.854 43.841,26.894 44.488,26.972 L44.714,0.902 Z M44.954,27.036 C46.219,27.225 47.435,27.559 48.587,28.022 L55.642,2.948 C54.472,2.498 52.857,2.054 51.604,1.84 L44.954,27.036 Z M49.203,28.285 C50.306,28.782 51.344,29.398 52.299,30.119 L65.744,7.84 C64.773,7.141 63.374,6.273 62.266,5.773 L49.203,28.285 Z M74.207,15.211 C73.527,14.381 72.471,13.238 71.62,12.521 L53.057,30.724 C53.888,31.429 54.649,32.216 55.323,33.077 L74.207,15.211 Z M56.278,34.421 C56.723,35.124 57.116,35.861 57.452,36.629 L80.28,24.202 C79.933,23.391 79.301,22.219 78.794,21.492 L56.278,34.421 Z M58.605,40.569 C58.478,39.77 58.294,38.989 58.053,38.232 L83.222,31.815 C83.489,32.576 83.758,33.77 83.887,34.555 L58.605,40.569 L58.605,40.569 Z" id="Fill-11" fill="#000000" mask="url(#mask-2)"></path>
                </g>
                <path d="M125.869,17.694 L125.869,13.343 C125.869,11.405 125.179,10.391 123.472,10.391 C121.534,10.391 121.028,11.636 121.074,13.343 L121.074,30.446 C121.028,32.153 121.534,33.398 123.472,33.398 C125.179,33.398 125.869,32.385 125.869,30.446 L125.869,26.095 L134.677,26.095 L134.677,29.618 C134.677,35.472 131.726,39.993 123.425,39.993 C116.554,39.993 112.266,36.717 112.266,29.618 L112.266,14.172 C112.266,7.072 116.554,3.797 123.425,3.797 C131.726,3.797 134.677,8.318 134.677,14.172 L134.677,17.694 L125.869,17.694 Z M176.25,39.232 L184.868,39.232 L184.868,4.337 L176.25,4.337 L176.25,39.232 Z M163.126,39.232 L171.744,39.232 L171.744,4.337 L163.126,4.337 L163.126,39.232 Z M209.879,13.66 L210.062,15.947 L210.2,15.947 C210.931,14.895 212.898,12.837 216.238,12.837 C220.492,12.837 222.688,15.901 222.688,19.607 C222.688,22.398 222.688,39.232 222.688,39.232 L214.408,39.232 C214.408,39.232 214.408,22.717 214.408,21.345 C214.455,19.973 213.584,19.287 212.669,19.287 C211.846,19.287 210.839,19.973 210.839,21.254 L210.839,39.232 L202.606,39.232 L202.606,13.66 L209.879,13.66 Z M189.516,39.232 L197.933,39.232 L197.933,13.614 L189.516,13.614 L189.516,39.232 Z M189.516,11.099 L197.933,11.099 L197.933,4.923 L189.516,4.923 L189.516,11.099 Z M246.042,21.621 L238.477,21.621 L238.477,20.053 C238.477,18.811 237.651,17.839 236.313,17.839 C234.899,17.839 234.235,18.547 234.235,19.546 C234.235,20.763 234.952,21.489 236.803,22.389 C237.954,22.95 239.196,23.552 240.624,24.243 C245.555,26.626 246.778,28.573 246.778,31.721 C246.778,36.344 243.395,39.928 236.356,39.928 C229.655,39.928 226.303,36.533 226.303,31.212 L226.303,30.245 L233.959,30.245 L233.959,32.32 C233.959,33.752 234.797,34.625 236.356,34.625 C237.727,34.625 238.571,33.64 238.571,32.549 C238.571,31.914 238.477,30.847 235.567,29.427 C234.903,29.103 233.51,28.441 232.77,28.078 C229.219,26.343 226.766,24.797 226.766,20.284 C226.766,15.808 230.18,12.536 236.403,12.536 C243.51,12.536 246.042,16.483 246.042,20.931 L246.042,21.621 Z M138.889,21.456 C138.889,15.599 142.9,12.601 148.849,12.601 C155.398,12.601 158.859,16.152 158.859,21.456 L158.859,31.14 C158.859,36.443 155.445,39.993 148.849,39.993 C142.947,39.993 138.889,37.042 138.889,31.186 L138.889,21.456 Z M146.98,32.615 C146.98,33.583 147.809,34.369 148.869,34.369 C149.865,34.369 150.762,33.676 150.762,32.615 L150.762,19.981 C150.762,18.919 149.953,18.181 148.869,18.181 C147.767,18.181 146.98,18.966 146.98,19.934 L146.98,32.615 L146.98,32.615 Z" id="Fill-13" fill="#000000"></path>
            </g>
        </g>
    </g>
</svg>
