<?xml version="1.0" encoding="utf-8"?>
<svg viewBox="0 0 100 70" xmlns="http://www.w3.org/2000/svg" xmlns:bx="https://boxy-svg.com">
  <g transform="matrix(0.201385, 0, 0, 0.205152, -0.959496, -18.971945)" style="">
    <title>logo</title>
    <g transform="matrix(1.027206, 0, 0, 1, -0.133498, 0)">
      <title>outline</title>
      <path d="M 246.942 418.788 C 304.242 418.788 361.539 418.799 418.839 418.765 C 422.983 418.762 427.238 418.932 431.255 418.115 C 439.879 416.362 447.166 411.741 453.023 405.324 C 467.015 389.999 473.95 371.455 474.112 351.027 C 474.568 294.195 474.311 237.357 474.213 180.522 C 474.201 174.786 473.759 168.996 472.867 163.329 C 470.129 145.969 462.978 130.717 449.97 118.607 C 442.458 111.615 433.641 107.572 423.122 107.575 C 305.059 107.603 186.997 107.601 68.937 107.563 C 64.815 107.56 60.934 108.297 57.113 109.767 C 49.251 112.799 42.857 117.819 37.592 124.271 C 24.965 139.751 19.192 157.917 19.05 177.51 C 18.658 231.569 18.949 285.635 18.88 339.697 C 18.866 348.486 19.16 357.225 20.965 365.837 C 24.457 382.502 31.362 397.361 44.316 408.879 C 49.485 413.477 55.432 416.902 62.277 418.103 C 66.444 418.834 70.785 418.759 75.048 418.762 C 132.345 418.802 189.645 418.788 246.942 418.788 M 246.52 433.627 C 188.418 433.627 130.312 433.546 72.206 433.688 C 59.908 433.719 49.009 430.034 39.299 422.846 C 27.025 413.763 18.427 401.762 12.734 387.637 C 7.726 375.201 4.907 362.401 4.942 348.881 C 5.084 289.505 4.962 230.131 5.098 170.755 C 5.118 162.648 7.235 154.757 9.696 147.049 C 13.344 135.621 18.646 125.016 26.328 115.739 C 36.821 103.072 49.942 94.878 66.499 92.773 C 67.522 92.64 68.573 92.692 69.612 92.692 C 187.672 92.689 305.729 92.652 423.789 92.75 C 435.584 92.759 446.14 97.131 455.457 104.239 C 465.063 111.566 472.54 120.779 477.742 131.661 C 482.834 142.301 486.594 153.426 488.026 165.221 C 488.177 166.477 488.151 167.76 488.151 169.028 C 488.153 231.523 488.249 294.016 488.064 356.512 C 488.029 368.428 484.246 379.68 479.414 390.505 C 475.53 399.207 470.585 407.264 464.003 414.216 C 455.818 422.863 446.192 429.188 434.533 432.166 C 430.377 433.228 426.189 433.673 421.877 433.667 C 363.425 433.604 304.976 433.627 246.52 433.627" style="fill: rgb(255, 98, 33); fill-rule: evenodd; fill-opacity: 1;">
        <title>outer-stripe</title>
      </path>
      <path d="M 246.454 130.206 L 246.454 130.197 C 235.251 130.197 224.045 130.194 212.839 130.197 C 166.754 130.209 120.665 130.235 74.577 130.214 C 70.615 130.214 67.106 131.349 63.839 133.518 C 56.053 138.694 51.605 146.203 48.708 154.847 C 46.271 162.108 46.421 169.611 46.427 177.108 C 46.456 236.251 46.502 295.391 46.487 354.53 C 46.485 364.174 49.067 373.011 54.355 380.991 C 59.92 389.39 67.354 394.045 77.997 394.034 C 190.965 393.878 303.933 393.927 416.904 393.97 C 422.732 393.973 427.89 392.264 432.173 388.492 C 441.398 380.365 446.418 369.878 446.565 357.719 C 446.929 327.579 446.753 297.427 446.755 267.281 C 446.755 234.128 446.677 200.979 446.706 167.826 C 446.715 160.349 444.413 153.565 441.222 146.951 C 439.015 142.373 435.694 138.685 431.934 135.436 C 427.483 131.589 422.157 130.159 416.251 130.168 C 359.653 130.229 303.055 130.206 246.454 130.206 M 247.277 115.523 C 303.884 115.523 360.485 115.627 417.092 115.422 C 426.761 115.387 434.608 119.078 441.687 124.892 C 449.025 130.916 454.545 138.515 457.823 147.43 C 460.208 153.917 461.56 160.77 461.563 167.745 C 461.6 230.469 461.574 293.199 461.592 355.923 C 461.597 368.873 456.855 380.185 449.756 390.681 C 446.097 396.096 441.386 400.454 435.801 403.871 C 430.969 406.822 425.655 408.145 420.084 408.593 C 418.706 408.705 417.311 408.642 415.928 408.642 C 303.067 408.645 190.202 408.651 77.341 408.636 C 64.599 408.636 54.349 403.198 46.303 393.621 C 36.157 381.543 31.666 367.29 31.64 351.694 C 31.542 291.047 31.299 230.4 31.781 169.755 C 31.929 151.422 38.857 135.257 53.687 123.424 C 60.379 118.087 68.07 115.468 76.772 115.479 C 133.607 115.56 190.442 115.523 247.277 115.523" style="fill: rgb(255, 98, 33); fill-rule: evenodd; fill-opacity: 1;">
        <title>inner-stripe</title>
      </path>
    </g>
    <g style="clip-path: url(#clippath0);" transform="matrix(2.888103, 0, 0, -2.888103, -8.138124, 444.61615)">
      <title>letters</title>
      <g transform="matrix(1, 0, 0.0003, 1.007135, -0.402579, -1.403891)">
        <title>i</title>
        <path d="M 28.968 98.336 L 37.603 98.336 L 37.603 26.199 C 36.213 26.181 34.795 26.157 33.378 26.148 C 31.94 26.139 30.502 26.146 28.968 26.146 Z" style="fill: rgb(255, 76, 28); fill-rule: evenodd; fill-opacity: 1;"/>
        <path d="M 41.268 98.329 L 49.442 98.329 L 49.442 26.232 L 41.268 26.232 Z" style="fill: rgb(255, 75, 27); fill-rule: evenodd; fill-opacity: 1;"/>
      </g>
      <g transform="matrix(1.067815, 0, 0, 1.020143, 78.764694, 70.181259)">
        <title>f</title>
        <path d="M 0 0 L 17.318 0 C 17.349 -0.368 17.396 -0.673 17.397 -0.979 C 17.403 -2.938 17.402 -4.898 17.399 -6.858 C 17.397 -8.12 17.395 -8.125 16.167 -8.126 C 12.128 -8.129 8.088 -8.127 4.049 -8.127 L -7.709 -8.127 L -8.961 -8.127 C -9.001 -7.736 -9.058 -7.432 -9.058 -7.128 C -9.065 -4.488 -9.081 -1.849 -9.058 0.791 C -9.026 4.545 -7.939 7.979 -5.627 10.94 C -3.63 13.496 -0.922 15.016 2.264 15.552 C 4.026 15.848 5.828 15.984 7.616 16.032 C 10.453 16.109 13.294 16.053 16.134 16.053 L 17.349 16.053 L 17.349 7.691 C 16.971 7.669 16.592 7.629 16.212 7.628 C 13.253 7.622 10.292 7.669 7.334 7.603 C 5.948 7.572 4.528 7.477 3.192 7.14 C 1.125 6.62 0.087 5.155 0.006 3.026 C -0.03 2.073 0 1.119 0 0" style="fill: rgb(255, 77, 29); fill-rule: evenodd; fill-opacity: 1;"/>
        <path d="M -0.498 -44.297 L -9.005 -44.297 L -9.005 -11.925 L 17.355 -11.925 L 17.355 -19 L -0.498 -19 Z" style="fill: rgb(255, 77, 29); fill-rule: evenodd; fill-opacity: 1;"/>
        <path d="M 17.326 19.253 L 16.125 19.253 C 11.887 19.253 7.642 19.38 3.41 19.217 C -0.961 19.049 -4.9 17.625 -7.856 14.194 C -10.095 11.597 -11.466 8.544 -12.117 5.2 C -12.413 3.684 -12.553 2.114 -12.556 0.568 C -12.589 -13.867 -12.575 -28.302 -12.576 -42.736 C -12.576 -43.017 -12.591 -43.298 -12.573 -43.576 C -12.537 -44.137 -12.782 -44.366 -13.346 -44.363 C -15.901 -44.35 -18.455 -44.357 -21.1 -44.357 C -21.127 -43.943 -21.167 -43.598 -21.167 -43.252 C -21.175 -28.217 -21.235 -13.182 -21.153 1.853 C -21.128 6.317 -20.722 10.78 -19.07 15.019 C -17.533 18.96 -15.154 22.242 -11.573 24.565 C -9.357 26.003 -6.856 26.751 -4.279 27.124 C -2.117 27.437 0.085 27.575 2.272 27.608 C 6.869 27.679 11.469 27.629 16.067 27.629 L 17.326 27.629 Z" style="fill: rgb(255, 77, 29); fill-rule: evenodd; fill-opacity: 1;"/>
      </g>
      <g transform="matrix(1.064608, 0, 0, 1.008402, 126.081703, 69.379082)">
        <title>p</title>
        <path d="M 0 0 C 1.944 0 3.576 -0.046 5.202 0.027 C 5.719 0.05 6.292 0.296 6.715 0.609 C 8.585 1.992 9.114 4.824 7.943 6.853 C 7.183 8.172 5.33 9.217 4.072 9.038 C 2.376 8.796 0.93 7.542 0.646 5.814 C 0.34 3.945 0.219 2.046 0 0 M -8.633 -9.242 C -8.648 -8.896 -8.674 -8.587 -8.674 -8.278 C -8.677 -3.801 -8.847 0.685 -8.63 5.151 C -8.409 9.689 -6.694 13.617 -2.712 16.223 C -1.179 17.227 0.573 17.635 2.354 17.95 C 4.882 18.397 7.369 18.271 9.802 17.455 C 13.389 16.252 15.728 13.74 16.931 10.23 C 17.509 8.544 17.978 6.752 18.076 4.985 C 18.263 1.637 17.462 -1.49 15.262 -4.182 C 12.583 -7.46 9.064 -9.099 4.956 -9.28 C 0.607 -9.47 -3.756 -9.323 -8.112 -9.32 C -8.264 -9.319 -8.414 -9.276 -8.633 -9.242" style="fill: rgb(255, 77, 29); fill-rule: evenodd; fill-opacity: 1;"/>
        <path d="M 0.152 -21.514 L 0.152 -44.087 L -8.6 -44.087 L -8.6 -12.285 L -7.334 -12.285 C -2.895 -12.285 1.546 -12.356 5.983 -12.261 C 9.061 -12.196 11.992 -11.393 14.577 -9.651 C 17.988 -7.353 19.873 -4.023 20.542 -0.049 C 21.1 3.274 21.155 6.666 20.305 9.941 C 18.929 15.245 15.894 19.092 10.299 20.479 C 6.466 21.429 2.647 21.527 -1.188 20.547 C -4.869 19.606 -7.548 17.387 -9.581 14.219 C -11.545 11.158 -12.087 7.767 -12.094 4.259 C -12.124 -11.378 -12.107 -27.016 -12.107 -42.653 L -12.107 -44.054 L -20.438 -44.054 C -20.452 -43.753 -20.481 -43.447 -20.481 -43.139 C -20.482 -28.382 -20.433 -13.624 -20.507 1.133 C -20.531 5.7 -19.939 10.11 -18.404 14.413 C -17.191 17.811 -15.483 20.907 -12.932 23.464 C -9.767 26.636 -5.959 28.63 -1.488 29.251 C -0.068 29.448 1.368 29.736 2.786 29.685 C 4.57 29.62 6.359 29.335 8.117 28.995 C 12.308 28.185 16.114 26.509 19.387 23.71 C 22.322 21.2 24.528 18.226 25.948 14.575 C 27.279 11.153 27.912 7.64 27.892 4.034 C 27.863 -1.425 26.8 -6.68 23.932 -11.434 C 22.979 -13.015 21.715 -14.342 20.375 -15.61 C 16.783 -19.002 12.467 -20.589 7.603 -20.91 C 5.178 -21.07 2.757 -21.3 0.152 -21.514" style="fill: rgb(255, 77, 29); fill-rule: evenodd; fill-opacity: 1;"/>
      </g>
    </g>
  </g>
</svg>