<svg id="Layer_1" data-name="Layer 1" xmlns="http://www.w3.org/2000/svg" viewBox="0 0 629.81 122.54"><defs><style>.cls-1{fill:#231f20;}.cls-2{fill:#ea0029;}</style></defs><title>MidAmerican_Energy_Company-logo_subhead</title><path class="cls-1" d="M625,90h-1.13v3H623V90h-1.13v-.71H625V90m4.81,3H629V90l-1.09,3h-.51l-1.08-3v3h-.84V89.27h1.34l.84,2.23.86-2.23h1.31Z"/><polygon class="cls-2" points="118.21 118.48 118.21 53.99 108.98 60.74 106.12 60.74 118.21 50.45 118.18 44.7 96.98 60.71 94.03 60.74 118.18 39.36 118.18 34.76 84.95 60.74 81.94 60.71 118.21 27.33 118.21 24.08 72.88 60.74 69.85 60.71 118.21 14.37 118.21 12.6 60.58 60.91 118.21 118.48"/><polygon class="cls-2" points="0 0.28 59.09 59.36 118.21 0.28 0 0.28"/><rect class="cls-1" x="198.47" y="0.73" width="16.73" height="46.07"/><path class="cls-1" d="M221.79.73h17.06c15.46,0,27.31,6.79,27.31,23.7,0,13.69-9.64,22.37-23.16,22.37H221.79V.73M238.54,33h1c5.57,0,9.85-2.56,9.85-8.6,0-6.48-3.75-9.24-9.85-9.24h-1Z"/><polyline class="cls-1" points="384.52 0.73 415.5 0.73 415.5 13.31 401.38 13.31 401.38 17.72 414.28 17.72 414.28 29.69 401.38 29.69 401.38 34.22 415.98 34.22 415.98 46.8 384.52 46.8 384.52 0.73"/><rect class="cls-1" x="469.06" y="0.73" width="16.73" height="46.07"/><path class="cls-1" d="M525.33,19.41c-2.69-2.5-6.05-4.63-9.85-4.63a9,9,0,0,0-9.11,9,9.21,9.21,0,0,0,9.36,9c3.85,0,6.91-1.67,9.6-4.27l-.51,17.23c-2.68,1.27-8.91,1.83-11.9,1.83A23.1,23.1,0,0,1,489.51,24.2,24,24,0,0,1,513.58,0a35.24,35.24,0,0,1,11.24,1.87l.51,17.54"/><path class="cls-1" d="M546.13,46.8H528.39l16-46.07h18.53L579.37,46.8H561.65l-1.54-5.74H547.47l-1.34,5.74m11.06-16.68-3.06-14h-.61l-3.06,14.05Z"/><polyline class="cls-1" points="582.61 0.73 598.68 0.73 612.8 26.32 612.8 0.73 628.8 0.73 628.8 46.8 612.8 46.8 598.07 22.6 598.6 22.65 598.6 46.8 582.61 46.8 582.61 0.73"/><polyline class="cls-1" points="298.51 0.73 280 0.73 263.98 46.8 281.73 46.8 289.12 16.07 289.72 16.07 292.76 30.12 289.93 30.12 285.8 41.06 295.7 41.06 297.24 46.8 314.96 46.8 298.51 0.73"/><polyline class="cls-1" points="176.48 13.77 176.35 13.77 169.85 46.62 153.17 46.62 146.69 13.77 146.56 13.77 146.56 46.62 131.15 46.62 131.15 0.66 156.43 0.66 161.44 28.02 161.57 28.02 166.61 0.66 191.89 0.66 191.89 46.62 176.48 46.62 176.48 13.77"/><polyline class="cls-1" points="363.43 13.77 363.31 13.77 356.83 46.62 340.14 46.62 333.64 13.77 333.51 13.77 333.51 46.62 318.1 46.62 318.1 0.66 343.38 0.66 348.42 28.02 348.55 28.02 353.56 0.66 378.85 0.66 378.85 46.62 363.43 46.62 363.43 13.77"/><polyline class="cls-1" points="130.97 93.1 150.16 93.1 150.16 89.65 134.56 89.65 134.56 73.61 149.75 73.61 149.75 70.14 134.56 70.14 134.56 57.66 150.16 57.66 150.16 54.19 130.97 54.19 130.97 93.1"/><polyline class="cls-1" points="206.04 93.1 225.25 93.1 225.25 89.65 209.66 89.65 209.66 73.61 224.85 73.61 224.85 70.14 209.66 70.14 209.66 57.66 225.25 57.66 225.25 54.19 206.04 54.19 206.04 93.1"/><path class="cls-1" d="M247.15,75.23a11.46,11.46,0,0,0,7.09-2.64,10.05,10.05,0,0,0,3.19-7.79,10.09,10.09,0,0,0-4.05-8.58h0c-2.73-2-5.9-2-8.93-2h-5.29V93.1h3.59V75.25H243L255.3,93.1h4.2l-.63-.94L247.15,75.23m-4.43-17.57h.94l1.19,0a13,13,0,0,1,5.31.8A5.79,5.79,0,0,1,252.9,61a7.71,7.71,0,0,1,.91,3.7,7,7,0,0,1-2.41,5.49h0a6.18,6.18,0,0,1-2.86,1.37,18,18,0,0,1-3.34.22h-2.46Z"/><path class="cls-1" d="M305.16,73.76H288.08V77.2h13.44a11.79,11.79,0,0,1-4.33,8.94,17.38,17.38,0,0,1-10.73,4,16.5,16.5,0,0,1,0-33c5.9,0,10.78,3,14.05,7.83l.38.55,2.91-2.33-.36-.45c-4-5.52-9.77-9.06-16.83-9A19.95,19.95,0,1,0,301.06,87.3c3.27-3.57,4.13-7.64,4.1-12.12V73.76"/><polyline class="cls-1" points="324.15 72.7 313.39 54.19 309.37 54.19 309.87 55.1 322.35 76.57 322.35 93.1 325.94 93.1 325.94 76.57 338.93 54.19 334.91 54.19 324.15 72.7"/><path class="cls-1" d="M375.15,53.71a20.29,20.29,0,0,0-20.3,20c0,10.88,9.42,19.87,20.25,19.87A20.13,20.13,0,0,0,388,88.74l.2-.17V83.38l-1,1.24a15.52,15.52,0,0,1-5.54,4A17.1,17.1,0,0,1,375,90.16a17.71,17.71,0,0,1-11.69-5,15.73,15.73,0,0,1-4.89-11.23,16.82,16.82,0,0,1,4.89-11.72,16.35,16.35,0,0,1,11.69-5,16.67,16.67,0,0,1,12.2,5.74l1,1.27V59l-.17-.18a19.28,19.28,0,0,0-12.89-5.06"/><path class="cls-1" d="M417,53.71a19.94,19.94,0,1,0,20.13,19.95A20.18,20.18,0,0,0,417,53.71m0,36.45a16.45,16.45,0,1,1,16.56-16.5,16.37,16.37,0,0,1-4.89,11.59A16.55,16.55,0,0,1,417,90.16Z"/><path class="cls-1" d="M512.22,56.7a9.17,9.17,0,0,0-4.11-2,22,22,0,0,0-4.43-.36H496.4V93.27H500V75.38h3.64c3,0,6.31-.38,8.79-2.53v0h0a10.45,10.45,0,0,0,3.34-7.92,10.58,10.58,0,0,0-3.61-8.2M510,70a6.6,6.6,0,0,1-2.86,1.54,12.45,12.45,0,0,1-3.31.36H500v-14h3.34c2.3,0,4.53.07,6.23,1.36a7,7,0,0,1,2.61,5.62A6.79,6.79,0,0,1,510,70Z"/><path class="cls-1" d="M516.21,93.12H520l5-12.4h15.72l5,12.4h3.8L532.92,51.89,516.21,93.12m16.71-31.81,6.43,15.92H526.47Z"/><polyline class="cls-1" points="624.7 54.19 613.97 72.67 603.21 54.19 599.14 54.19 599.67 55.1 612.15 76.57 612.15 93.12 615.79 93.12 615.79 76.57 628.78 54.19 624.7 54.19"/><polyline class="cls-1" points="465.64 87.91 452.28 54.29 446.66 54.29 446.66 92.97 450.48 92.97 450.48 58.83 463.97 92.97 467.34 92.97 480.75 58.83 480.75 92.97 484.57 92.97 484.57 54.29 479.03 54.29 465.64 87.91"/><polyline class="cls-1" points="188.4 88.34 167.67 54.29 163.11 54.29 163.11 92.97 166.91 92.97 166.91 58.88 187.64 92.97 192.2 92.97 192.2 54.29 188.4 54.29 188.4 88.34"/><path class="cls-1" d="M452.76,28.63c2.07-1.42,8.25-6.1,8.25-11.9,0-11.62-8.81-16-19.21-16H421.57V46.8H438V32h.3l7.34,14.78h19.32L452.76,28.63m-13.65-7.49H438V13.31h1.29c2.89,0,5.39.43,5.39,4S441.87,21.14,439.11,21.14Z"/><polyline class="cls-1" points="585.19 88.34 564.46 54.29 559.9 54.29 559.9 92.97 563.7 92.97 563.7 58.88 584.43 92.97 588.99 92.97 588.99 54.29 585.19 54.29 585.19 88.34"/><path d="M144,111.17a7,7,0,1,1-7-7A6.89,6.89,0,0,1,144,111.17Zm-.93,0A6.08,6.08,0,1,0,137,117.3,6,6,0,0,0,143.1,111.17Z"/><path d="M148,103.14v7.93a3.9,3.9,0,0,1,3.24-1.62,3.94,3.94,0,0,1,4,4.25c0,2.43-1.54,4.41-4.05,4.41a3.6,3.6,0,0,1-3.2-1.7v1.48h-.8V103.14Zm6.4,10.56a3.23,3.23,0,1,0-6.44,0c0,2.07,1.14,3.68,3.22,3.68S154.4,115.73,154.4,113.7Z"/><path d="M161.77,111.15a1.5,1.5,0,0,0-1.43-.93,1.33,1.33,0,0,0-1.4,1.32c0,.8.65,1.07,1.46,1.39a4.57,4.57,0,0,1,2.12,1.22,2,2,0,0,1,.43,1.33,2.53,2.53,0,0,1-2.7,2.63,2.83,2.83,0,0,1-2.85-2.18l.79-.25a2.09,2.09,0,0,0,2.06,1.66,1.77,1.77,0,0,0,1.85-1.82c0-.93-.59-1.27-1.85-1.78a4.14,4.14,0,0,1-1.8-1.09,1.74,1.74,0,0,1-.36-1.07,2.1,2.1,0,0,1,2.21-2.13,2.22,2.22,0,0,1,2.16,1.34Z"/><path d="M166,113.86a3.3,3.3,0,0,0,3.27,3.48,3.16,3.16,0,0,0,2.88-1.88l.69.41a4.18,4.18,0,1,1-3.69-6.42c2.23,0,3.91,1.78,3.91,4.41Zm6.21-.77a3.11,3.11,0,0,0-3.06-2.87,3.15,3.15,0,0,0-3.09,2.87Z"/><path d="M179.53,111.15a1.5,1.5,0,0,0-1.44-.93,1.33,1.33,0,0,0-1.39,1.32c0,.8.65,1.07,1.46,1.39a4.62,4.62,0,0,1,2.12,1.22,2,2,0,0,1,.43,1.33,2.53,2.53,0,0,1-2.7,2.63,2.83,2.83,0,0,1-2.85-2.18l.79-.25a2.09,2.09,0,0,0,2.06,1.66,1.76,1.76,0,0,0,1.84-1.82c0-.93-.58-1.27-1.84-1.78a4.14,4.14,0,0,1-1.8-1.09,1.74,1.74,0,0,1-.36-1.07,2.09,2.09,0,0,1,2.2-2.13,2.22,2.22,0,0,1,2.17,1.34Z"/><path d="M186.9,111.15a1.5,1.5,0,0,0-1.44-.93,1.33,1.33,0,0,0-1.39,1.32c0,.8.65,1.07,1.46,1.39a4.62,4.62,0,0,1,2.12,1.22,2,2,0,0,1,.42,1.33,2.52,2.52,0,0,1-2.69,2.63,2.83,2.83,0,0,1-2.85-2.18l.79-.25a2.09,2.09,0,0,0,2.06,1.66,1.76,1.76,0,0,0,1.84-1.82c0-.93-.58-1.27-1.84-1.78a4.14,4.14,0,0,1-1.8-1.09,1.74,1.74,0,0,1-.36-1.07,2.09,2.09,0,0,1,2.2-2.13,2.23,2.23,0,0,1,2.17,1.34Z"/><path d="M190.43,106.88a.73.73,0,1,1,1.45,0,.73.73,0,1,1-1.45,0Zm1.13,2.75v8.26h-.81v-8.26Z"/><path d="M194.68,109.63l2.91,6.86,2.88-6.86h.89l-3.77,8.77-3.8-8.77Z"/><path d="M203.91,113.86a3.31,3.31,0,0,0,3.28,3.48,3.14,3.14,0,0,0,2.87-1.88l.69.41a4.07,4.07,0,0,1-7.69-2.07,4,4,0,0,1,4-4.35c2.23,0,3.91,1.78,3.91,4.41Zm6.22-.77a3.11,3.11,0,0,0-3.06-2.87,3.17,3.17,0,0,0-3.1,2.87Z"/><path d="M214.79,103.14v14.75H214V103.14Z"/><path d="M220.94,118l-3.93-8.4h.93l3.47,7.35,3-7.35h.93l-5.42,12.91H219Z"/><path d="M227.64,116.58l.81.24L227,120.87l-.53-.21Z"/><path d="M243.21,117.89l-4.37-6.37h-.4v6.37h-.89v-13.5h1.94a4.7,4.7,0,0,1,2.85.69,3.34,3.34,0,0,1,1.4,2.89,3.24,3.24,0,0,1-2.27,3.28,5,5,0,0,1-1.66.27l4.41,6.37Zm-4.77-7.18h1.29c1.92,0,3.08-1,3.08-2.76a2.5,2.5,0,0,0-1.2-2.34,4.68,4.68,0,0,0-2.06-.41h-1.11Z"/><path d="M246.74,113.86a3.31,3.31,0,0,0,3.28,3.48,3.15,3.15,0,0,0,2.87-1.88l.69.41a4.18,4.18,0,1,1-3.68-6.42c2.22,0,3.9,1.78,3.9,4.41Zm6.21-.77a3.1,3.1,0,0,0-3-2.87,3.16,3.16,0,0,0-3.1,2.87Z"/><path d="M257.61,103.14v14.75h-.81V103.14Z"/><path d="M261.46,113.86a3.31,3.31,0,0,0,3.28,3.48,3.14,3.14,0,0,0,2.87-1.88l.69.41a4.18,4.18,0,1,1-3.68-6.42c2.22,0,3.9,1.78,3.9,4.41Zm6.21-.77a3.1,3.1,0,0,0-3.05-2.87,3.16,3.16,0,0,0-3.1,2.87Z"/><path d="M271.52,109.63h.81v1.3a2.77,2.77,0,0,1,2.53-1.48,2.57,2.57,0,0,1,2.29,1.15,4,4,0,0,1,.4,2.09v5.2h-.8v-5.2a3.1,3.1,0,0,0-.33-1.66,1.76,1.76,0,0,0-1.62-.81,2.17,2.17,0,0,0-2,1.15,4.45,4.45,0,0,0-.45,2.23v4.29h-.81Z"/><path d="M282,110.4v7.49h-.81V110.4h-.91v-.77h.91v-2.95H282v2.95h1.44v.77Z"/><path d="M286.43,103.14v14.75h-.81V103.14Z"/><path d="M290.27,113.86a3.31,3.31,0,0,0,3.28,3.48,3.16,3.16,0,0,0,2.88-1.88l.68.41a4.07,4.07,0,0,1-7.69-2.07,4,4,0,0,1,4-4.35c2.23,0,3.91,1.78,3.91,4.41Zm6.22-.77a3.11,3.11,0,0,0-3.06-2.87,3.17,3.17,0,0,0-3.1,2.87Z"/><path d="M303.86,111.15a1.5,1.5,0,0,0-1.44-.93,1.33,1.33,0,0,0-1.39,1.32c0,.8.64,1.07,1.45,1.39a4.6,4.6,0,0,1,2.13,1.22,2,2,0,0,1,.42,1.33,2.52,2.52,0,0,1-2.69,2.63,2.83,2.83,0,0,1-2.85-2.18l.79-.25a2.09,2.09,0,0,0,2.06,1.66,1.76,1.76,0,0,0,1.84-1.82c0-.93-.58-1.27-1.84-1.78a4.08,4.08,0,0,1-1.8-1.09,1.74,1.74,0,0,1-.36-1.07,2.09,2.09,0,0,1,2.2-2.13,2.24,2.24,0,0,1,2.17,1.34Z"/><path d="M311.23,111.15a1.5,1.5,0,0,0-1.44-.93,1.33,1.33,0,0,0-1.39,1.32c0,.8.65,1.07,1.45,1.39a4.6,4.6,0,0,1,2.13,1.22,2,2,0,0,1,.42,1.33,2.52,2.52,0,0,1-2.69,2.63,2.83,2.83,0,0,1-2.85-2.18l.79-.25a2.09,2.09,0,0,0,2.06,1.66,1.76,1.76,0,0,0,1.84-1.82c0-.93-.58-1.27-1.84-1.78a4.14,4.14,0,0,1-1.8-1.09,1.74,1.74,0,0,1-.36-1.07,2.09,2.09,0,0,1,2.2-2.13,2.24,2.24,0,0,1,2.17,1.34Z"/><path d="M315.89,103.14v14.75h-.81V103.14Z"/><path d="M322,118l-3.92-8.4h.93l3.46,7.35,3-7.35h.94L321,122.54h-.93Z"/><path d="M342.9,115.24h-5.67l-.91,2.65h-4.23l5.81-15.27h4.33l5.82,15.27h-4.24Zm-1-3-1.78-5.08-1.78,5.08Z"/><path d="M353.05,110.56v7.33h-3.67v-7.33h-1.21V107.5h1.21v-3.12h3.67v3.12h2.08v3.06Z"/><path d="M366.21,110.56l-5.57-7.94h4.74l2.83,4.17,2.82-4.17h4.74l-5.59,7.94v7.33h-4Z"/><path d="M374.09,112.61a5.08,5.08,0,0,1,.46-2.16,5.16,5.16,0,0,1,1.3-1.74,6.13,6.13,0,0,1,2-1.17,7.21,7.21,0,0,1,2.5-.42,7.37,7.37,0,0,1,2.48.41,6,6,0,0,1,2,1.16,5.14,5.14,0,0,1,1.3,1.76,5.38,5.38,0,0,1,.47,2.26,5.29,5.29,0,0,1-.48,2.26,5.38,5.38,0,0,1-1.3,1.76,5.94,5.94,0,0,1-2,1.14,7.57,7.57,0,0,1-2.52.4,7.31,7.31,0,0,1-2.47-.4,5.66,5.66,0,0,1-2-1.15,5.3,5.3,0,0,1-1.29-1.8A5.57,5.57,0,0,1,374.09,112.61Zm3.86,0a2.32,2.32,0,0,0,.2,1,2.45,2.45,0,0,0,.5.76,2.29,2.29,0,0,0,.75.5,2.4,2.4,0,0,0,.92.19,2.37,2.37,0,0,0,.92-.19,2.29,2.29,0,0,0,.75-.5,2.67,2.67,0,0,0,.51-.76,2.29,2.29,0,0,0,.19-.94,2.24,2.24,0,0,0-.19-.93A2.62,2.62,0,0,0,382,111a2.17,2.17,0,0,0-.75-.51,2.36,2.36,0,0,0-.92-.18,2.39,2.39,0,0,0-.92.18,2.17,2.17,0,0,0-.75.51,2.36,2.36,0,0,0-.5.74A2.21,2.21,0,0,0,378,112.65Z"/><path d="M391.72,107.5v5.85a1.68,1.68,0,0,0,1.87,1.93c1.24,0,1.86-.64,1.86-1.93V107.5h3.66v6.56a3.72,3.72,0,0,1-1.38,3.16,8.71,8.71,0,0,1-8.29,0,3.72,3.72,0,0,1-1.38-3.16V107.5Z"/><path d="M401,107.5h3.66v1.7a4.15,4.15,0,0,1,1.44-1.42,3.88,3.88,0,0,1,2-.5h.32a2,2,0,0,1,.39,0v3.5a3.49,3.49,0,0,0-1.58-.36,2.33,2.33,0,0,0-1.91.76,3.32,3.32,0,0,0-.64,2.22v4.45H401Z"/><path d="M424.81,106.53a4.83,4.83,0,0,0-1.3-.78,3.39,3.39,0,0,0-1.25-.25,2.09,2.09,0,0,0-1.26.36,1.15,1.15,0,0,0-.48,1,1,1,0,0,0,.24.67,2.11,2.11,0,0,0,.64.46,4.86,4.86,0,0,0,.89.33l1,.31a6.12,6.12,0,0,1,2.85,1.73,4.26,4.26,0,0,1,.9,2.82,5.43,5.43,0,0,1-.4,2.13,4.48,4.48,0,0,1-1.15,1.63,5.39,5.39,0,0,1-1.87,1,7.68,7.68,0,0,1-2.5.38,9.18,9.18,0,0,1-5.36-1.73l1.7-3.19a7.08,7.08,0,0,0,1.76,1.17,4.19,4.19,0,0,0,1.72.38,2,2,0,0,0,1.45-.44,1.36,1.36,0,0,0,.48-1,1.26,1.26,0,0,0-.13-.6,1.25,1.25,0,0,0-.4-.47,3.37,3.37,0,0,0-.74-.39c-.3-.12-.67-.26-1.1-.41s-1-.34-1.51-.53a5.11,5.11,0,0,1-1.32-.78,3.74,3.74,0,0,1-.93-1.23,4.28,4.28,0,0,1-.35-1.87,5.44,5.44,0,0,1,.37-2.06,4.65,4.65,0,0,1,1.05-1.58,4.89,4.89,0,0,1,1.66-1,6.39,6.39,0,0,1,2.2-.36,9.53,9.53,0,0,1,2.37.31,10.87,10.87,0,0,1,2.37.92Z"/><path d="M431.86,113.31c0,1.58.74,2.37,2.23,2.37a2,2,0,0,0,1.8-1h3.54c-.71,2.38-2.5,3.56-5.37,3.56a7.07,7.07,0,0,1-2.4-.39,5.44,5.44,0,0,1-1.88-1.12,5,5,0,0,1-1.2-1.75,5.66,5.66,0,0,1-.43-2.26,6.38,6.38,0,0,1,.41-2.34,4.81,4.81,0,0,1,1.15-1.77,5.24,5.24,0,0,1,1.81-1.13,6.94,6.94,0,0,1,2.4-.39,6.77,6.77,0,0,1,2.37.39,4.85,4.85,0,0,1,1.78,1.15,5,5,0,0,1,1.12,1.83,7.39,7.39,0,0,1,.38,2.44v.38Zm4.29-2.12a2.21,2.21,0,0,0-.75-1.24,2.34,2.34,0,0,0-2.76,0,2,2,0,0,0-.68,1.26Z"/><path d="M441.05,107.5h3.67v1.7a4.22,4.22,0,0,1,1.43-1.42,3.89,3.89,0,0,1,2-.5h.31a2,2,0,0,1,.4,0v3.5a3.55,3.55,0,0,0-1.58-.36,2.37,2.37,0,0,0-1.92.76,3.38,3.38,0,0,0-.63,2.22v4.45h-3.67Z"/><path d="M453.38,107.5l2.47,5.33,2.51-5.33h4.09l-5.4,10.39H454.6l-5.35-10.39Z"/><path d="M462.86,103.51a2,2,0,0,1,.16-.8,2,2,0,0,1,.45-.65,2,2,0,0,1,.66-.45,1.92,1.92,0,0,1,.79-.16,2,2,0,0,1,.81.16,2.23,2.23,0,0,1,.65.45,2,2,0,0,1,.45.65,2,2,0,0,1,.16.8,1.94,1.94,0,0,1-.16.8,2.15,2.15,0,0,1-.45.66,2.23,2.23,0,0,1-.65.45,2,2,0,0,1-.81.16,1.92,1.92,0,0,1-.79-.16,2,2,0,0,1-.66-.45,2.15,2.15,0,0,1-.45-.66A1.94,1.94,0,0,1,462.86,103.51Zm3.91,4v10.39H463.1V107.5Z"/><path d="M476.5,110.86a3.37,3.37,0,0,0-1.92-.64,2.63,2.63,0,0,0-1,.18,2.48,2.48,0,0,0-.8.51,2.52,2.52,0,0,0-.54.79,2.63,2.63,0,0,0-.19,1,2.51,2.51,0,0,0,.19,1,2.55,2.55,0,0,0,.53.79,2.46,2.46,0,0,0,.8.52,2.72,2.72,0,0,0,1,.18,3,3,0,0,0,1.92-.71v3.12a6.47,6.47,0,0,1-2.57.58,6,6,0,0,1-2.15-.38,5.31,5.31,0,0,1-3-2.83,5.21,5.21,0,0,1-.47-2.23,5.53,5.53,0,0,1,.45-2.26,5.47,5.47,0,0,1,1.21-1.76,5.7,5.7,0,0,1,1.84-1.16,6.32,6.32,0,0,1,2.28-.41,5.36,5.36,0,0,1,2.46.57Z"/><path d="M481.29,113.31q0,2.37,2.22,2.37a2,2,0,0,0,1.8-1h3.55c-.72,2.38-2.5,3.56-5.37,3.56a7.17,7.17,0,0,1-2.41-.39,5.39,5.39,0,0,1-1.87-1.12A5,5,0,0,1,478,115a5.66,5.66,0,0,1-.43-2.26,6.38,6.38,0,0,1,.41-2.34,4.68,4.68,0,0,1,1.15-1.77,5.15,5.15,0,0,1,1.81-1.13,6.94,6.94,0,0,1,2.4-.39,6.77,6.77,0,0,1,2.37.39,4.85,4.85,0,0,1,1.78,1.15,5,5,0,0,1,1.12,1.83,7.39,7.39,0,0,1,.38,2.44v.38Zm4.29-2.12a2.21,2.21,0,0,0-.75-1.24,2.34,2.34,0,0,0-2.76,0,2,2,0,0,0-.68,1.26Z"/><path d="M492.38,105.44v5h-1.79v-5h-1.37v-1.53h4.53v1.53Zm1.7,5,1.09-6.53h1.77l1.24,3.34,1.31-3.34h1.78l1,6.53h-1.8L500,106.9l-1.45,3.54h-.79l-1.38-3.54-.52,3.54Z"/></svg>