<?xml version="1.0" encoding="UTF-8"?>
<svg width="178px" height="42px" viewBox="0 0 178 42" version="1.1" xmlns="http://www.w3.org/2000/svg" xmlns:xlink="http://www.w3.org/1999/xlink">
    <title>TMB-logo-light</title>
    <g id="TMB-logo-light" stroke="none" stroke-width="1" fill="none" fill-rule="evenodd">
        <polyline id="Fill-2" fill="#015F9E" points="42.237 4.552 65.141 4.552 65.141 10.839 57.843 10.839 57.843 37.11 49.535 37.11 49.535 10.839 42.237 10.839 42.237 4.552"></polyline>
        <path d="M61.772,14.207 L69.07,14.207 L69.07,17.687 L69.182,17.687 C70.081,14.768 73.336,13.645 76.255,13.645 L76.255,21.055 C75.245,20.718 74.347,20.494 73.224,20.494 C70.754,20.494 69.968,21.055 69.182,22.29 L69.182,37.11 L61.772,37.11 L61.772,14.207" id="Fill-3" fill="#015F9E"></path>
        <polygon id="Fill-4" fill="#015F9E" points="78.164 37.11 85.574 37.11 85.574 14.207 78.164 14.207"></polygon>
        <path d="M88.156,14.207 L95.453,14.207 L95.453,17.238 L95.566,17.238 C97.137,14.88 99.495,13.645 102.077,13.645 C104.322,13.645 106.568,14.993 106.68,17.238 L106.793,17.238 C108.364,14.88 110.722,13.645 113.304,13.645 C116.335,13.645 118.468,15.217 118.468,18.473 L118.468,37.11 L111.059,37.11 L111.059,20.831 C111.059,19.708 110.722,18.81 109.375,18.81 C108.589,18.81 107.915,19.147 107.466,19.82 L107.017,20.382 L107.017,37.11 L99.607,37.11 L99.607,20.831 C99.607,19.708 99.158,18.81 97.811,18.81 C97.025,18.81 96.464,19.147 95.902,19.82 L95.453,20.382 L95.453,37.11 L88.156,37.11 L88.156,14.207" id="Fill-5" fill="#015F9E"></path>
        <path d="M120.939,4.552 L128.348,4.552 L128.348,15.442 L128.461,15.442 C129.471,14.431 131.492,13.645 132.951,13.645 C138.003,13.645 140.81,18.698 140.81,25.322 C140.81,30.598 138.565,37.335 132.39,37.335 C129.471,37.335 127.675,35.987 126.215,33.742 L124.868,37.11 L120.939,37.11 L120.939,4.552 Z M128.348,29.7 C128.236,31.608 129.359,32.731 130.818,32.731 C132.839,32.731 133.176,30.598 133.176,26.444 L133.176,24.648 C133.176,20.157 133.176,17.687 130.818,17.687 C129.92,17.687 129.246,18.249 128.797,18.698 L128.348,19.034 L128.348,29.7 L128.348,29.7 Z" id="Fill-6" fill="#015F9E"></path>
        <polygon id="Fill-7" fill="#015F9E" points="142.719 37.11 150.129 37.11 150.129 4.552 142.719 4.552"></polygon>
        <path d="M159.447,26.557 C159.447,28.577 159.784,32.058 162.815,32.058 C164.499,32.058 166.071,30.71 166.52,28.914 L171.46,30.71 C171.123,31.721 168.878,36.997 162.254,36.997 C155.181,36.997 152.037,31.272 152.037,24.873 C152.037,18.361 155.405,12.972 162.254,12.972 C169.327,12.972 171.796,19.034 171.796,24.985 L171.796,26.557 L159.447,26.557 Z M164.948,22.178 C164.948,20.045 164.724,17.575 162.141,17.575 C160.12,17.575 159.447,20.045 159.447,22.178 L164.948,22.178 L164.948,22.178 Z" id="Fill-8" fill="#015F9E"></path>
        <polygon id="Fill-9" fill="#015F9E" points="78.164 11.063 85.574 11.063 85.574 4.439 78.164 4.439"></polygon>
        <path d="M27.418,29.026 C27.306,29.588 27.081,30.037 26.969,30.374 C26.857,30.598 26.857,30.71 26.857,30.823 C26.52,31.159 26.295,31.384 26.183,31.384 C24.499,32.844 23.152,33.629 21.131,34.303 C20.345,34.528 18.661,34.864 16.64,34.864 L13.497,36.548 C17.314,37.447 20.457,36.661 21.692,36.212 C24.05,35.538 25.622,34.64 27.53,32.956 C27.979,32.731 30,30.935 31.347,28.128 C31.572,27.679 31.797,27.118 32.021,26.557 L27.418,29.026" id="Fill-10" fill="#015F9E"></path>
        <path d="M16.303,6.685 C16.416,6.685 16.528,6.685 16.64,6.685 C16.865,6.685 16.977,6.685 17.202,6.685 C16.865,6.797 16.528,6.909 16.191,7.022 L18.998,8.593 C21.243,8.481 23.489,9.491 24.948,11.063 C24.611,11.063 24.275,11.176 23.825,11.176 L28.653,13.758 L28.653,13.645 C28.878,13.758 28.99,13.87 29.102,14.095 L32.358,15.779 C32.246,15.666 32.246,15.554 32.246,15.442 C32.246,15.329 32.133,15.329 32.133,15.217 C32.133,15.105 32.021,14.993 32.021,14.88 C31.123,12.298 29.327,10.053 27.081,8.256 C27.081,8.144 26.969,8.144 26.857,8.032 C23.489,5.338 20.008,4.776 18.324,4.664 C18.212,4.664 18.1,4.664 17.987,4.664 C16.977,4.552 15.854,4.552 14.844,4.664 C14.844,4.776 14.732,4.776 14.619,4.776 C14.17,4.776 13.833,4.888 13.497,5.001 C13.272,5.001 12.935,5.113 12.711,5.113 L15.63,6.797 C15.854,6.685 16.079,6.685 16.303,6.685" id="Fill-11" fill="#015F9E"></path>
        <path d="M3.841,25.995 C3.392,24.873 3.056,23.525 3.056,22.964 C2.831,21.617 2.831,21.617 2.831,20.382 C2.831,19.933 2.943,19.371 2.943,18.922 C3.168,17.912 3.28,16.789 3.954,15.329 L3.954,11.063 C3.505,11.737 2.943,12.523 2.607,13.421 C1.372,15.666 1.147,17.35 0.923,18.585 C0.81,19.147 0.698,19.82 0.81,20.382 C0.81,21.729 0.81,21.841 0.923,23.188 C1.035,24.086 1.484,25.883 2.157,27.23 C2.607,28.353 3.056,29.139 3.617,29.924 C3.617,30.037 3.729,30.037 3.729,30.149 C3.841,30.261 3.841,30.374 3.954,30.486 L3.954,25.771 C3.954,25.883 3.841,25.995 3.841,25.995" id="Fill-12" fill="#015F9E"></path>
        <path d="M27.867,18.473 C27.755,18.81 27.418,19.034 27.193,19.371 C27.979,20.831 28.653,22.29 28.99,23.637 C29.214,23.413 29.327,23.301 29.439,22.964 C30.786,20.943 31.011,18.361 30.113,15.779 C30,15.666 30,15.666 30,15.554 C29.888,15.329 29.776,15.105 29.664,14.88 C29.664,14.768 29.551,14.656 29.439,14.544 C29.439,14.431 29.327,14.207 29.102,14.095 L28.653,13.758 C28.99,15.442 28.765,17.013 27.867,18.473" id="Fill-13" fill="#015F9E"></path>
        <path d="M15.181,6.797 L15.069,6.797 C14.395,6.909 13.721,7.022 13.047,7.246 C13.609,7.358 14.17,7.583 14.732,7.807 C15.181,7.471 15.63,7.246 16.191,7.022 L15.63,6.797 C15.518,6.797 15.405,6.797 15.181,6.797" id="Fill-14" fill="#015F9E"></path>
        <path d="M32.021,26.557 L42.125,21.055 L32.358,15.779 C33.705,20.045 33.144,23.75 32.021,26.557" id="Fill-15" fill="#015F9E"></path>
        <path d="M18.324,8.593 C18.212,8.593 18.212,8.593 18.212,8.593 C17.875,8.706 17.426,8.818 17.089,8.93 C18.436,9.716 19.896,10.614 21.243,11.849 C22.141,11.512 23.04,11.4 23.825,11.176 L18.998,8.593 C18.773,8.593 18.549,8.593 18.324,8.593" id="Fill-16" fill="#015F9E"></path>
        <path d="M23.04,29.251 C17.426,30.037 11.588,27.342 8.108,23.076 C6.76,24.648 5.862,26.22 5.525,27.567 C5.413,28.128 5.413,28.577 5.525,29.026 C5.75,29.363 5.975,29.588 6.199,29.924 C7.097,30.935 9.343,33.293 13.047,34.303 C14.282,34.64 15.518,34.864 16.64,34.864 L27.418,29.026 C27.418,28.577 27.53,28.128 27.53,27.679 C26.183,28.465 24.724,29.026 23.04,29.251" id="Fill-17" fill="#015F9E"></path>
        <path d="M8.332,19.596 C9.68,18.361 11.139,17.238 12.711,16.115 C12.598,15.891 12.486,15.666 12.374,15.442 C11.7,13.421 11.925,11.4 12.935,9.716 C12.935,9.604 13.047,9.491 13.047,9.379 C11.925,9.042 10.802,8.93 9.904,9.155 C9.343,9.604 8.781,10.277 8.445,10.951 C7.658,12.186 7.209,13.645 7.209,15.105 C7.209,16.115 7.434,17.238 7.771,18.249 C7.996,18.81 8.22,19.147 8.332,19.596" id="Fill-18" fill="#015F9E"></path>
        <path d="M14.395,14.656 C14.395,14.768 14.395,14.88 14.507,14.993 C15.854,14.095 17.426,13.309 18.886,12.635 C17.651,11.625 16.416,10.839 15.069,10.165 C14.956,10.39 14.844,10.614 14.732,10.839 C13.946,11.961 13.833,13.309 14.395,14.656" id="Fill-19" fill="#015F9E"></path>
        <path d="M22.478,19.484 C23.264,19.371 23.938,19.259 24.499,18.922 C23.489,17.238 22.141,15.666 20.682,14.207 C20.457,14.319 20.233,14.431 19.896,14.544 C18.436,15.105 16.977,15.891 15.518,16.789 C17.202,18.698 19.896,19.933 22.478,19.484" id="Fill-20" fill="#015F9E"></path>
        <path d="M8.669,6.909 C9.792,6.236 10.802,5.674 12.711,5.113 L3.954,0.398 L3.954,11.063 C5.975,8.369 8.332,7.022 8.669,6.909" id="Fill-21" fill="#015F9E"></path>
        <path d="M26.071,17.35 C26.857,16.228 26.857,14.88 26.408,13.421 C26.408,13.309 26.295,13.196 26.295,13.084 C25.285,13.084 24.162,13.196 22.927,13.533 C24.162,14.768 25.173,16.115 26.071,17.463 L26.071,17.35" id="Fill-22" fill="#015F9E"></path>
        <path d="M22.703,27.118 C24.499,26.893 25.959,26.332 27.306,25.434 C26.969,23.862 26.408,22.29 25.509,20.718 C24.724,21.168 23.825,21.504 22.815,21.617 C19.447,22.066 15.854,20.494 13.833,17.912 C12.262,19.034 10.802,20.269 9.567,21.504 C12.486,25.434 17.763,27.791 22.703,27.118" id="Fill-23" fill="#015F9E"></path>
        <path d="M6.873,21.28 C6.424,20.494 6.087,19.82 5.862,19.034 C5.076,16.789 4.964,14.656 5.413,12.635 C5.076,13.084 4.74,13.645 4.403,14.319 C4.291,14.656 4.066,14.993 3.954,15.329 L3.954,25.771 C4.515,24.311 5.525,22.739 6.873,21.28" id="Fill-24" fill="#015F9E"></path>
        <path d="M30.225,25.546 C30,25.771 29.776,25.995 29.551,26.22 C29.551,26.444 29.551,26.781 29.551,27.006 C29.776,26.557 30,26.107 30.225,25.546" id="Fill-25" fill="#015F9E"></path>
        <path d="M4.627,31.272 C4.403,31.047 4.178,30.71 3.954,30.486 L3.954,41.713 L13.497,36.548 C13.16,36.548 12.823,36.436 12.374,36.324 C8.108,35.089 5.525,32.395 4.627,31.272" id="Fill-26" fill="#015F9E"></path>
        <path d="M34.5,32 C33.1222493,32 32,33.1222493 32,34.5 C32,35.8777507 33.1222493,37 34.5,37 C35.8777507,37 37,35.8777507 37,34.5 C37,33.1222493 35.8777507,32 34.5,32 Z M34.5,32.5 C35.6075308,32.5 36.5,33.3924693 36.5,34.5 C36.5,35.6075308 35.6075308,36.5 34.5,36.5 C33.3924693,36.5 32.5,35.6075308 32.5,34.5 C32.5,33.3924693 33.3924693,32.5 34.5,32.5 Z M33.625,33.25 L33.625,35.75 L34.1484375,35.75 L34.1484375,34.8515625 L34.546875,34.8515625 L35.0234375,35.75 L35.578125,35.75 L35.578125,35.7265625 L35.0234375,34.703125 C35.0734375,34.678125 35.153125,34.6515625 35.203125,34.6015625 C35.278125,34.5515625 35.3015625,34.503125 35.3515625,34.453125 C35.4015625,34.378125 35.428125,34.325 35.453125,34.25 C35.478125,34.175 35.4765625,34.1 35.4765625,34 C35.4765625,33.875 35.4484375,33.771875 35.3984375,33.671875 C35.3734375,33.596875 35.3015625,33.528125 35.2265625,33.453125 C35.1265625,33.378125 35.046875,33.321875 34.921875,33.296875 C34.821875,33.271875 34.696875,33.25 34.546875,33.25 L33.625,33.25 Z M34.171875,33.703125 L34.578125,33.703125 C34.703125,33.703125 34.8,33.721875 34.875,33.796875 C34.95,33.871875 34.9765625,33.953125 34.9765625,34.078125 C34.9765625,34.128125 34.978125,34.1765625 34.953125,34.2265625 C34.928125,34.2765625 34.9,34.3265625 34.875,34.3515625 C34.85,34.3765625 34.8,34.396875 34.75,34.421875 C34.7,34.446875 34.653125,34.453125 34.578125,34.453125 L34.171875,34.453125 L34.171875,33.703125 Z" id="Shape" fill="#015F9E" fill-rule="nonzero"></path>
        <path d="M175.5,32 C174.122249,32 173,33.1222493 173,34.5 C173,35.8777507 174.122249,37 175.5,37 C176.877751,37 178,35.8777507 178,34.5 C178,33.1222493 176.877751,32 175.5,32 Z M175.5,32.5 C176.607531,32.5 177.5,33.3924693 177.5,34.5 C177.5,35.6075308 176.607531,36.5 175.5,36.5 C174.392469,36.5 173.5,35.6075308 173.5,34.5 C173.5,33.3924693 174.392469,32.5 175.5,32.5 Z M174.625,33.25 L174.625,35.75 L175.148438,35.75 L175.148438,34.8515625 L175.546875,34.8515625 L176.023438,35.75 L176.578125,35.75 L176.578125,35.7265625 L176.023438,34.703125 C176.073438,34.678125 176.153125,34.6515625 176.203125,34.6015625 C176.278125,34.5515625 176.301562,34.503125 176.351562,34.453125 C176.401563,34.378125 176.428125,34.325 176.453125,34.25 C176.478125,34.175 176.476562,34.1 176.476562,34 C176.476562,33.875 176.448438,33.771875 176.398438,33.671875 C176.373437,33.596875 176.301562,33.528125 176.226562,33.453125 C176.126563,33.378125 176.046875,33.321875 175.921875,33.296875 C175.821875,33.271875 175.696875,33.25 175.546875,33.25 L174.625,33.25 Z M175.171875,33.703125 L175.578125,33.703125 C175.703125,33.703125 175.8,33.721875 175.875,33.796875 C175.95,33.871875 175.976562,33.953125 175.976562,34.078125 C175.976562,34.128125 175.978125,34.1765625 175.953125,34.2265625 C175.928125,34.2765625 175.9,34.3265625 175.875,34.3515625 C175.85,34.3765625 175.8,34.396875 175.75,34.421875 C175.7,34.446875 175.653125,34.453125 175.578125,34.453125 L175.171875,34.453125 L175.171875,33.703125 Z" id="Shape" fill="#015F9E" fill-rule="nonzero"></path>
    </g>
</svg>